<mxfile host="app.diagrams.net" agent="Mozilla/5.0 (Macintosh; Intel Mac OS X 10.15; rv:137.0) Gecko/20100101 Firefox/137.0" version="26.2.14">
  <diagram name="Page-1" id="58cdce13-f638-feb5-8d6f-7d28b1aa9fa0">
    <mxGraphModel grid="1" page="1" gridSize="10" guides="1" tooltips="1" connect="1" arrows="1" fold="1" pageScale="1" pageWidth="1169" pageHeight="827" background="none" math="0" shadow="0">
      <root>
        <mxCell id="0" />
        <mxCell id="1" parent="0" />
        <mxCell id="382b91b5511bd0f7-1" value="" style="ellipse;html=1;shape=startState;fillColor=#000000;strokeColor=#ff0000;rounded=1;shadow=0;comic=0;labelBackgroundColor=none;fontFamily=Verdana;fontSize=12;fontColor=#000000;align=center;direction=south;" vertex="1" parent="1">
          <mxGeometry x="180" y="140" width="30" height="30" as="geometry" />
        </mxCell>
        <mxCell id="382b91b5511bd0f7-6" value="Active" style="rounded=1;whiteSpace=wrap;html=1;arcSize=24;fillColor=#ffffc0;strokeColor=#ff0000;shadow=0;comic=0;labelBackgroundColor=none;fontFamily=Verdana;fontSize=12;fontColor=#000000;align=center;" vertex="1" parent="1">
          <mxGeometry x="145" y="510" width="120" height="60" as="geometry" />
        </mxCell>
        <mxCell id="382b91b5511bd0f7-7" value="Disconnected" style="rounded=1;whiteSpace=wrap;html=1;arcSize=24;fillColor=#ffffc0;strokeColor=#ff0000;shadow=0;comic=0;labelBackgroundColor=none;fontFamily=Verdana;fontSize=12;fontColor=#000000;align=center;" vertex="1" parent="1">
          <mxGeometry x="410" y="281.25" width="120" height="67.5" as="geometry" />
        </mxCell>
        <mxCell id="382b91b5511bd0f7-9" value="Awake" style="rounded=1;whiteSpace=wrap;html=1;arcSize=24;fillColor=#ffffc0;strokeColor=#ff0000;shadow=0;comic=0;labelBackgroundColor=none;fontFamily=Verdana;fontSize=12;fontColor=#000000;align=center;" vertex="1" parent="1">
          <mxGeometry x="690" y="640" width="120" height="60" as="geometry" />
        </mxCell>
        <mxCell id="2a3bc250acf0617d-9" style="endArrow=classic;html=1;rounded=1;entryX=0.433;entryY=0;entryDx=0;entryDy=0;entryPerimeter=0;" edge="1" parent="1" target="382b91b5511bd0f7-6">
          <mxGeometry relative="1" as="geometry">
            <mxPoint x="197" y="160" as="sourcePoint" />
            <mxPoint x="195" y="507" as="targetPoint" />
          </mxGeometry>
        </mxCell>
        <mxCell id="LiAIJK0vPod15tvr9J4j-7" value="CONNECT" style="edgeLabel;html=1;align=center;verticalAlign=middle;resizable=0;points=[];" connectable="0" vertex="1" parent="2a3bc250acf0617d-9">
          <mxGeometry x="0.0654" relative="1" as="geometry">
            <mxPoint as="offset" />
          </mxGeometry>
        </mxCell>
        <mxCell id="LiAIJK0vPod15tvr9J4j-9" style="endArrow=classic;html=1;rounded=1;entryX=0.433;entryY=0.233;entryDx=0;entryDy=0;exitX=0.25;exitY=0;exitDx=0;exitDy=0;entryPerimeter=0;" edge="1" parent="1" source="382b91b5511bd0f7-7" target="382b91b5511bd0f7-1">
          <mxGeometry relative="1" as="geometry">
            <mxPoint x="470" y="274.63" as="sourcePoint" />
            <mxPoint x="220" y="153.38" as="targetPoint" />
            <Array as="points">
              <mxPoint x="440" y="153" />
            </Array>
          </mxGeometry>
        </mxCell>
        <mxCell id="LiAIJK0vPod15tvr9J4j-10" value="&lt;div&gt;Session&lt;/div&gt;&lt;div&gt;Expiry&lt;/div&gt;" style="edgeLabel;html=1;align=center;verticalAlign=middle;resizable=0;points=[];" connectable="0" vertex="1" parent="LiAIJK0vPod15tvr9J4j-9">
          <mxGeometry x="0.0654" relative="1" as="geometry">
            <mxPoint x="-2" as="offset" />
          </mxGeometry>
        </mxCell>
        <mxCell id="LiAIJK0vPod15tvr9J4j-11" value="Asleep" style="rounded=1;whiteSpace=wrap;html=1;arcSize=20;fillColor=#ffffc0;strokeColor=#ff0000;shadow=0;comic=0;labelBackgroundColor=none;fontFamily=Verdana;fontSize=12;fontColor=#000000;align=center;" vertex="1" parent="1">
          <mxGeometry x="430" y="640" width="120" height="60" as="geometry" />
        </mxCell>
        <mxCell id="LiAIJK0vPod15tvr9J4j-39" style="endArrow=classic;html=1;rounded=1;entryX=0.75;entryY=0;entryDx=0;entryDy=0;" edge="1" parent="1" target="382b91b5511bd0f7-6">
          <mxGeometry relative="1" as="geometry">
            <mxPoint x="430" y="350" as="sourcePoint" />
            <mxPoint x="215" y="520" as="targetPoint" />
            <Array as="points">
              <mxPoint x="430" y="430" />
              <mxPoint x="235" y="430" />
            </Array>
          </mxGeometry>
        </mxCell>
        <mxCell id="LiAIJK0vPod15tvr9J4j-40" value="CONNECT" style="edgeLabel;html=1;align=center;verticalAlign=middle;resizable=0;points=[];" connectable="0" vertex="1" parent="LiAIJK0vPod15tvr9J4j-39">
          <mxGeometry x="0.0654" relative="1" as="geometry">
            <mxPoint as="offset" />
          </mxGeometry>
        </mxCell>
        <mxCell id="LiAIJK0vPod15tvr9J4j-58" style="endArrow=classic;html=1;rounded=1;entryX=1;entryY=0.75;entryDx=0;entryDy=0;exitX=1.008;exitY=0.367;exitDx=0;exitDy=0;exitPerimeter=0;" edge="1" parent="1" source="382b91b5511bd0f7-6">
          <mxGeometry relative="1" as="geometry">
            <mxPoint x="270" y="530" as="sourcePoint" />
            <mxPoint x="450" y="349" as="targetPoint" />
            <Array as="points">
              <mxPoint x="450" y="530" />
              <mxPoint x="450" y="349" />
            </Array>
          </mxGeometry>
        </mxCell>
        <mxCell id="LiAIJK0vPod15tvr9J4j-59" value="&lt;div&gt;Keep alive&lt;/div&gt;&lt;div&gt;Timeout&lt;br&gt;&lt;/div&gt;" style="edgeLabel;html=1;align=center;verticalAlign=middle;resizable=0;points=[];" connectable="0" vertex="1" parent="LiAIJK0vPod15tvr9J4j-58">
          <mxGeometry x="0.0654" relative="1" as="geometry">
            <mxPoint y="-20" as="offset" />
          </mxGeometry>
        </mxCell>
        <mxCell id="LiAIJK0vPod15tvr9J4j-79" value="DISCONNECT" style="edgeLabel;html=1;align=center;verticalAlign=middle;resizable=0;points=[];" connectable="0" vertex="1" parent="LiAIJK0vPod15tvr9J4j-58">
          <mxGeometry x="-0.5457" y="-1" relative="1" as="geometry">
            <mxPoint as="offset" />
          </mxGeometry>
        </mxCell>
        <mxCell id="LiAIJK0vPod15tvr9J4j-60" value="" style="line;strokeWidth=1;fillColor=none;align=left;verticalAlign=middle;spacingTop=-1;spacingLeft=3;spacingRight=3;rotatable=0;labelPosition=right;points=[];portConstraint=eastwest;strokeColor=inherit;" vertex="1" parent="1">
          <mxGeometry x="120" y="470" width="830" height="8" as="geometry" />
        </mxCell>
        <mxCell id="LiAIJK0vPod15tvr9J4j-61" value="" style="line;strokeWidth=1;fillColor=none;align=left;verticalAlign=middle;spacingTop=-1;spacingLeft=3;spacingRight=3;rotatable=0;labelPosition=right;points=[];portConstraint=eastwest;strokeColor=inherit;" vertex="1" parent="1">
          <mxGeometry x="120" y="210" width="830" height="8" as="geometry" />
        </mxCell>
        <mxCell id="LiAIJK0vPod15tvr9J4j-65" value="" style="endArrow=classic;html=1;rounded=0;exitX=1;exitY=0.25;exitDx=0;exitDy=0;entryX=0;entryY=0.25;entryDx=0;entryDy=0;" edge="1" parent="1" source="LiAIJK0vPod15tvr9J4j-11" target="382b91b5511bd0f7-9">
          <mxGeometry width="50" height="50" relative="1" as="geometry">
            <mxPoint x="546" y="655" as="sourcePoint" />
            <mxPoint x="720" y="655" as="targetPoint" />
          </mxGeometry>
        </mxCell>
        <mxCell id="LiAIJK0vPod15tvr9J4j-67" value="C-PINGREQ" style="edgeLabel;html=1;align=center;verticalAlign=middle;resizable=0;points=[];" connectable="0" vertex="1" parent="LiAIJK0vPod15tvr9J4j-65">
          <mxGeometry x="-0.2" y="-1" relative="1" as="geometry">
            <mxPoint x="16" as="offset" />
          </mxGeometry>
        </mxCell>
        <mxCell id="LiAIJK0vPod15tvr9J4j-66" value="" style="endArrow=classic;html=1;rounded=0;exitX=0;exitY=0.75;exitDx=0;exitDy=0;entryX=1;entryY=0.75;entryDx=0;entryDy=0;" edge="1" parent="1" source="382b91b5511bd0f7-9" target="LiAIJK0vPod15tvr9J4j-11">
          <mxGeometry width="50" height="50" relative="1" as="geometry">
            <mxPoint x="480" y="610" as="sourcePoint" />
            <mxPoint x="530" y="560" as="targetPoint" />
          </mxGeometry>
        </mxCell>
        <mxCell id="LiAIJK0vPod15tvr9J4j-68" value="S-PINGRESP" style="edgeLabel;html=1;align=center;verticalAlign=middle;resizable=0;points=[];" connectable="0" vertex="1" parent="LiAIJK0vPod15tvr9J4j-66">
          <mxGeometry x="0.2167" y="1" relative="1" as="geometry">
            <mxPoint x="23" as="offset" />
          </mxGeometry>
        </mxCell>
        <mxCell id="LiAIJK0vPod15tvr9J4j-69" value="" style="endArrow=classic;html=1;rounded=1;entryX=1;entryY=0.75;entryDx=0;entryDy=0;exitX=0.5;exitY=0;exitDx=0;exitDy=0;" edge="1" parent="1" source="382b91b5511bd0f7-9" target="382b91b5511bd0f7-7">
          <mxGeometry width="50" height="50" relative="1" as="geometry">
            <mxPoint x="480" y="610" as="sourcePoint" />
            <mxPoint x="530" y="560" as="targetPoint" />
            <Array as="points">
              <mxPoint x="750" y="332" />
            </Array>
          </mxGeometry>
        </mxCell>
        <mxCell id="3L-3C5Tpxzcq1TPz9Sw0-8" value="&lt;div&gt;Keep alive&lt;/div&gt;&lt;div&gt;or Retry&lt;/div&gt;&lt;div&gt;&amp;nbsp;Timeout&lt;br&gt;&lt;/div&gt;" style="edgeLabel;html=1;align=center;verticalAlign=middle;resizable=0;points=[];" connectable="0" vertex="1" parent="LiAIJK0vPod15tvr9J4j-69">
          <mxGeometry x="-0.6212" y="-4" relative="1" as="geometry">
            <mxPoint x="-4" y="-42" as="offset" />
          </mxGeometry>
        </mxCell>
        <mxCell id="49V0qzmo_p9xxEaxfnJC-1" value="DISCONNECT" style="edgeLabel;html=1;align=center;verticalAlign=middle;resizable=0;points=[];" connectable="0" vertex="1" parent="LiAIJK0vPod15tvr9J4j-69">
          <mxGeometry x="-0.7045" y="-2" relative="1" as="geometry">
            <mxPoint x="-2" y="-22" as="offset" />
          </mxGeometry>
        </mxCell>
        <mxCell id="LiAIJK0vPod15tvr9J4j-71" value="" style="endArrow=classic;html=1;rounded=1;exitX=0.625;exitY=1.033;exitDx=0;exitDy=0;exitPerimeter=0;entryX=0;entryY=0.5;entryDx=0;entryDy=0;" edge="1" parent="1">
          <mxGeometry width="50" height="50" relative="1" as="geometry">
            <mxPoint x="220" y="571.98" as="sourcePoint" />
            <mxPoint x="430" y="670" as="targetPoint" />
            <Array as="points">
              <mxPoint x="220" y="670" />
            </Array>
          </mxGeometry>
        </mxCell>
        <mxCell id="LiAIJK0vPod15tvr9J4j-72" value="`SLEEPREQ" style="edgeLabel;html=1;align=center;verticalAlign=middle;resizable=0;points=[];" connectable="0" vertex="1" parent="LiAIJK0vPod15tvr9J4j-71">
          <mxGeometry x="0.2629" y="-3" relative="1" as="geometry">
            <mxPoint as="offset" />
          </mxGeometry>
        </mxCell>
        <mxCell id="LiAIJK0vPod15tvr9J4j-73" value="&lt;div align=&quot;left&quot;&gt;Session&lt;/div&gt;&lt;div align=&quot;left&quot;&gt;&lt;strike&gt;Virtual Connection&lt;/strike&gt;&lt;br&gt;&lt;/div&gt;" style="text;html=1;align=left;verticalAlign=middle;resizable=0;points=[];autosize=1;strokeColor=none;fillColor=none;" vertex="1" parent="1">
          <mxGeometry x="840" y="218" width="120" height="40" as="geometry" />
        </mxCell>
        <mxCell id="LiAIJK0vPod15tvr9J4j-74" value="&lt;div align=&quot;left&quot;&gt;Session&lt;/div&gt;&lt;div align=&quot;left&quot;&gt;Virtual Connection&lt;br&gt;&lt;/div&gt;" style="text;html=1;align=left;verticalAlign=middle;resizable=0;points=[];autosize=1;strokeColor=none;fillColor=none;" vertex="1" parent="1">
          <mxGeometry x="840" y="478" width="120" height="40" as="geometry" />
        </mxCell>
        <mxCell id="LiAIJK0vPod15tvr9J4j-75" value="&lt;div align=&quot;left&quot;&gt;&lt;strike&gt;Session&lt;/strike&gt;&lt;/div&gt;&lt;div align=&quot;left&quot;&gt;&lt;strike&gt;Virtual Connection&lt;br&gt;&lt;/strike&gt;&lt;/div&gt;" style="text;html=1;align=left;verticalAlign=middle;resizable=0;points=[];autosize=1;strokeColor=none;fillColor=none;" vertex="1" parent="1">
          <mxGeometry x="840" y="70" width="120" height="40" as="geometry" />
        </mxCell>
        <mxCell id="LiAIJK0vPod15tvr9J4j-76" value="" style="endArrow=classic;html=1;rounded=0;entryX=0.817;entryY=1.019;entryDx=0;entryDy=0;entryPerimeter=0;" edge="1" parent="1">
          <mxGeometry width="50" height="50" relative="1" as="geometry">
            <mxPoint x="508" y="640" as="sourcePoint" />
            <mxPoint x="508.03999999999996" y="350.0325" as="targetPoint" />
          </mxGeometry>
        </mxCell>
        <mxCell id="LiAIJK0vPod15tvr9J4j-80" value="&lt;div&gt;Sleep&lt;/div&gt;&lt;div&gt;or Retry&lt;/div&gt;&lt;div&gt;Timeout&lt;br&gt;&lt;/div&gt;" style="edgeLabel;html=1;align=center;verticalAlign=middle;resizable=0;points=[];" connectable="0" vertex="1" parent="LiAIJK0vPod15tvr9J4j-76">
          <mxGeometry x="0.0277" y="-2" relative="1" as="geometry">
            <mxPoint y="9" as="offset" />
          </mxGeometry>
        </mxCell>
        <mxCell id="LiAIJK0vPod15tvr9J4j-83" value="DISCONNECT" style="edgeLabel;html=1;align=center;verticalAlign=middle;resizable=0;points=[];" connectable="0" vertex="1" parent="LiAIJK0vPod15tvr9J4j-76">
          <mxGeometry x="-0.5724" y="-1" relative="1" as="geometry">
            <mxPoint as="offset" />
          </mxGeometry>
        </mxCell>
        <mxCell id="LiAIJK0vPod15tvr9J4j-81" value="" style="endArrow=classic;html=1;rounded=1;entryX=0.75;entryY=1;entryDx=0;entryDy=0;exitX=0.25;exitY=1;exitDx=0;exitDy=0;" edge="1" parent="1" source="LiAIJK0vPod15tvr9J4j-11" target="LiAIJK0vPod15tvr9J4j-11">
          <mxGeometry width="50" height="50" relative="1" as="geometry">
            <mxPoint x="480" y="610" as="sourcePoint" />
            <mxPoint x="530" y="560" as="targetPoint" />
            <Array as="points">
              <mxPoint x="490" y="790" />
            </Array>
          </mxGeometry>
        </mxCell>
        <mxCell id="LiAIJK0vPod15tvr9J4j-82" value="&lt;div&gt;SLEEPREQ&lt;/div&gt;&lt;div&gt;(to change Sleep Timeout)&lt;br&gt;&lt;/div&gt;" style="edgeLabel;html=1;align=center;verticalAlign=middle;resizable=0;points=[];" connectable="0" vertex="1" parent="LiAIJK0vPod15tvr9J4j-81">
          <mxGeometry x="0.1967" y="1" relative="1" as="geometry">
            <mxPoint x="-5" y="-22" as="offset" />
          </mxGeometry>
        </mxCell>
        <mxCell id="LiAIJK0vPod15tvr9J4j-85" value="&lt;div&gt;None&lt;br&gt;&lt;/div&gt;" style="text;html=1;align=center;verticalAlign=middle;resizable=0;points=[];autosize=1;strokeColor=none;fillColor=none;" vertex="1" parent="1">
          <mxGeometry x="170" y="110" width="50" height="30" as="geometry" />
        </mxCell>
        <mxCell id="3L-3C5Tpxzcq1TPz9Sw0-1" value="" style="endArrow=classic;html=1;rounded=1;entryX=1;entryY=0.75;entryDx=0;entryDy=0;exitX=0.25;exitY=0;exitDx=0;exitDy=0;" edge="1" parent="1" source="LiAIJK0vPod15tvr9J4j-11" target="382b91b5511bd0f7-6">
          <mxGeometry width="50" height="50" relative="1" as="geometry">
            <mxPoint x="590" y="490" as="sourcePoint" />
            <mxPoint x="270" y="560" as="targetPoint" />
            <Array as="points">
              <mxPoint x="460" y="555" />
            </Array>
          </mxGeometry>
        </mxCell>
        <mxCell id="3L-3C5Tpxzcq1TPz9Sw0-2" value="CONNECT" style="edgeLabel;html=1;align=center;verticalAlign=middle;resizable=0;points=[];" connectable="0" vertex="1" parent="3L-3C5Tpxzcq1TPz9Sw0-1">
          <mxGeometry x="-0.1429" y="2" relative="1" as="geometry">
            <mxPoint as="offset" />
          </mxGeometry>
        </mxCell>
        <mxCell id="3L-3C5Tpxzcq1TPz9Sw0-9" value="&lt;div&gt;Notes:&lt;/div&gt;&lt;ol&gt;&lt;li&gt;All the DISCONNECT packets shown are sent by the Client.&lt;/li&gt;&lt;li&gt;The Timeout transitions can be indicated by the Server sending a DISCONNECT packet to the Client with an appropriate reason code.&lt;/li&gt;&lt;li&gt;DISCONNECT packets can also be sent at any time by the Server in the Active, Asleep and Awake states, for instance if the Server is shutting down.&lt;/li&gt;&lt;/ol&gt;" style="text;html=1;align=left;verticalAlign=middle;whiteSpace=wrap;rounded=0;" vertex="1" parent="1">
          <mxGeometry x="305" y="800" width="370" height="170" as="geometry" />
        </mxCell>
        <mxCell id="WpGMK16akJOg4-RfXMHW-1" value="" style="endArrow=classic;html=1;rounded=1;exitX=0.5;exitY=1;exitDx=0;exitDy=0;" edge="1" parent="1" source="382b91b5511bd0f7-9">
          <mxGeometry width="50" height="50" relative="1" as="geometry">
            <mxPoint x="760" y="650" as="sourcePoint" />
            <mxPoint x="200" y="571" as="targetPoint" />
            <Array as="points">
              <mxPoint x="750" y="800" />
              <mxPoint x="200" y="800" />
            </Array>
          </mxGeometry>
        </mxCell>
        <mxCell id="WpGMK16akJOg4-RfXMHW-3" value="CONNECT" style="edgeLabel;html=1;align=center;verticalAlign=middle;resizable=0;points=[];" connectable="0" vertex="1" parent="WpGMK16akJOg4-RfXMHW-1">
          <mxGeometry x="-0.7045" y="-2" relative="1" as="geometry">
            <mxPoint x="-80" y="2" as="offset" />
          </mxGeometry>
        </mxCell>
      </root>
    </mxGraphModel>
  </diagram>
</mxfile>
